<svg id="Ebene_1" data-name="Ebene 1" xmlns="http://www.w3.org/2000/svg" xmlns:xlink="http://www.w3.org/1999/xlink" viewBox="0 0 89.8 86"><defs><style>.cls-1{fill:none;}.cls-2{clip-path:url(#clip-path);}.cls-3{fill:#b8200b;}.cls-4{fill:#fff;}</style><clipPath id="clip-path" transform="translate(0 -0.1)"><rect class="cls-1" width="354.6" height="93.7"/></clipPath></defs><g class="cls-2"><path class="cls-3" d="M0,55.5V30.7S.7.1,33.5.1H56.3S89.8.6,89.8,30.7V86.1H33.5S0,85.2,0,55.5" transform="translate(0 -0.1)"/></g><g class="cls-2"><path class="cls-4" d="M24.3,24a33.16,33.16,0,0,1,24.4-9.7l-.1-5a38.53,38.53,0,0,0-28,11.1,38.39,38.39,0,0,0-11,27.8l5.1.1A33.08,33.08,0,0,1,24.3,24" transform="translate(0 -0.1)"/></g><g class="cls-2"><path class="cls-4" d="M28.6,28.3a27.28,27.28,0,0,0-8,20.1l5.4.1A22.23,22.23,0,0,1,48.9,25.6l-.1-5.4a27.76,27.76,0,0,0-20.2,8.1" transform="translate(0 -0.1)"/></g><g class="cls-2"><path class="cls-4" d="M37.3,36.9a16,16,0,0,0-4.6,11.7l5.4.1a10.62,10.62,0,0,1,11-11.1L49,32.2a15.91,15.91,0,0,0-11.7,4.7" transform="translate(0 -0.1)"/></g><g class="cls-2"><path class="cls-4" d="M64.4,67.3a6.4,6.4,0,1,1,6.3-6.4,6.36,6.36,0,0,1-6.3,6.4m18.9-3.9V58.3l-6.5-1.5a11.92,11.92,0,0,0-.8-2l3.6-5.7L76,45.5l-5.6,3.6a11.92,11.92,0,0,0-2-.8L67,41.7H62l-1.4,6.6a11.92,11.92,0,0,0-2,.8L53,45.5l-3.7,3.6,3.6,5.7a16.67,16.67,0,0,0-.8,2l-6.5,1.5v5.1l6.5,1.5a11.92,11.92,0,0,0,.8,2l-3.6,5.7,3.6,3.6,5.6-3.6a11.92,11.92,0,0,0,2,.8L61.9,80h5l1.4-6.6a11.92,11.92,0,0,0,2-.8l5.6,3.6,3.6-3.6-3.6-5.7a16.67,16.67,0,0,0,.8-2Z" transform="translate(0 -0.1)"/></g></svg>